<svg width="57" height="56" viewBox="0 0 57 56" fill="none" xmlns="http://www.w3.org/2000/svg">
<path fill-rule="evenodd" clip-rule="evenodd" d="M28.5 0C12.7537 0 0 12.8469 0 28.7082C0 41.4116 8.15812 52.1413 19.4869 55.9452C20.9119 56.1964 21.4462 55.3351 21.4462 54.5815C21.4462 53.8997 21.4106 51.6389 21.4106 49.2346C14.25 50.5624 12.3975 47.4762 11.8275 45.8614C11.5069 45.036 10.1175 42.4882 8.90625 41.8064C7.90875 41.2681 6.48375 39.9403 8.87063 39.9044C11.115 39.8685 12.7181 41.9858 13.2525 42.847C15.8175 47.1891 19.9144 45.9691 21.5531 45.2155C21.8025 43.3494 22.5506 42.0934 23.37 41.3757C17.0287 40.658 10.4025 38.1819 10.4025 27.201C10.4025 24.079 11.5069 21.4953 13.3238 19.4857C13.0387 18.768 12.0413 15.8254 13.6087 11.878C13.6087 11.878 15.9956 11.1244 21.4462 14.8206C23.7262 14.1747 26.1488 13.8517 28.5713 13.8517C30.9938 13.8517 33.4163 14.1747 35.6963 14.8206C41.1469 11.0886 43.5338 11.878 43.5338 11.878C45.1012 15.8254 44.1038 18.768 43.8188 19.4857C45.6356 21.4953 46.74 24.0431 46.74 27.201C46.74 38.2178 40.0781 40.658 33.7369 41.3757C34.77 42.2729 35.6606 43.9954 35.6606 46.6868C35.6606 50.5265 35.625 53.6126 35.625 54.5815C35.625 55.3351 36.1594 56.2322 37.5844 55.9452C43.2421 54.0212 48.1585 50.3585 51.6414 45.4725C55.1244 40.5865 56.9985 34.7233 57 28.7082C57 12.8469 44.2463 0 28.5 0Z" fill="#FFFCF2"/>
</svg>
