<?xml version="1.0" encoding="UTF-8"?>
<svg id="Layer_1" data-name="Layer 1" xmlns="http://www.w3.org/2000/svg" viewBox="0 0 1190.55 841.89">
  <path d="m438.66,495.28c19.38-12.24,38.44-25.05,58.29-36.48,9.8-5.64,21.19-4.69,30.99,1.28,28.56,17.41,57.1,34.88,85.02,53.28,6.23,4.11,9.87,12.13,15.9,19.88,21.17-4.59,45.19-9.79,69.21-14.99,14.92-3.23,25.37,1.32,28.61,12.47,3.96,13.61-2.77,23.54-18.99,27.39-20.12,4.77-40.31,9.24-60.46,13.88-19.55,4.5-39.08,9.07-58.62,13.61h-10.22c-9.26-3.3-19.21-5.37-27.63-10.14-17.48-9.91-34.18-21.17-51.12-32.03-9.46-6.06-17.08-5.62-25.43,1.78-8.7,7.7-17.55,15.25-26.18,23.02-3.21,2.89-6.1,3.92-9.36.33,0-24.42,0-48.85,0-73.27Zm101.68,11.97c16.99,10.67,33.51,21.16,50.19,31.41,3.82,2.35,8.13,5.24,12.27,5.34,4.18.1,10.28-1.83,12.16-4.93,2.12-3.5,1.36-9.52.16-13.99-.75-2.77-4.35-5.16-7.17-6.93-27.14-17.06-54.35-34.02-81.63-50.87-10.4-6.43-20.93-6.15-31.31.33-14.44,9.02-29.04,17.8-43.19,27.23-2.65,1.77-4.93,6.11-5.03,9.34-.51,16.17-.26,32.37-.19,48.55,0,1.74.6,3.48,1.12,6.3,8.12-7.17,15.36-13.5,22.52-19.92,9.29-8.33,21.66-9.24,32.14-2.51,16.95,10.88,34.02,21.57,50.96,32.46,12.33,7.92,25.88,10.73,39.95,7.67,38.23-8.3,76.35-17.15,114.44-26.09,10.66-2.5,14.29-8.18,12.32-16.89-1.74-7.7-8.18-11.22-18.23-9.08-24.96,5.31-49.85,10.91-74.75,16.51-2.11.47-4.37,1.38-5.99,2.75-11.01,9.33-18.15,10.41-30.61,2.93-16.78-10.07-33.17-20.8-49.87-31.01-4.44-2.71-4.75-5.03-.27-8.62Z"/>
  <path d="m664.21,321.75c-12,16.78-23.56,19.45-41.3,9.99-12.82-6.84-22.81-16.63-30.65-28.82-3.23-5.02-2.38-7.97,3.1-10.55,14.48-6.85,29.58-9.87,45.47-7.77,15.84,2.1,23.49,10.19,25.43,25.99.16,1.31.39,2.61,2.66,4.09.29-2.7.77-5.39.83-8.09.13-5.67-.23-11.37.2-17.02.16-2.07,1.96-4.01,3.01-6.02,1.32,2.09,2.95,4.05,3.85,6.3.69,1.72.45,3.82.62,5.74.85.17,1.7.35,2.55.52.54-2.25,1.76-4.58,1.51-6.75-2.13-18.69,6.74-33.02,24.59-38.53,21.76-6.73,43.48-6.39,65.3.33,7.14,2.2,7.98,5.23,5.12,11.68-9.26,20.88-23.36,37.43-42.83,49.31-17.01,10.38-33.22,6.79-48.01-10.52-7.06.29-9.28,4.09-8.87,11,.51,8.7.12,17.46.12,26.39,6.6,1.14,12.49,1.82,18.2,3.2,42.18,10.16,71.86,52.47,66.94,95.23-5.34,46.44-42.78,80.46-88.41,80.32-45.58-.14-83.54-33.5-88.76-78.01-5.87-50.03,28.54-93.75,78.27-99.76,2.34-.28,5.83-2.5,6.33-4.45,1.92-7.46.17-11.27-5.26-13.8Zm-69.04,74.71c0,6.95-2.17,14.77.39,16.9,9.28,7.72,17.71,17.23,32.07,17.13,13.66-.1,23.25,8.31,28.56,20.79,3.66,8.59,7.25,17.34,9.56,26.35,2.68,10.44,3.92,21.25,5.98,33.03,15.96.78,32.58-3.7,47.64-14.37q-3.68-6-14.26-8.31c-14.56-3.19-21.33-10.62-21.3-23.36.03-11.13,8.94-20.64,21.65-24.03,5.37-1.43,11.38-3.03,15.38-6.53,7.98-6.98,16.56-7.92,26.19-6.09,2.41.46,4.85.76,7.29,1.13,3.88-32.17-25.05-71.73-55.69-77.18-2.1,2.75-3.68,6.06-6.28,7.98-5.82,4.31-6.1,9.32-5.8,16.25.48,11.42-1.06,23.03-2.92,34.37-.58,3.5-4.43,8.29-7.71,9.21-17.71,4.97-26.06,5.36-32.5-11.52-3.47-9.09-7.75-10.9-16.69-7.33-6.63,2.64-12.49,2.5-18.77-.58-2.98-1.46-6.43-1.98-12.79-3.83Zm95.47-46.84c-29.25-12.08-78.58,10.69-89.15,42.39,7.3.9,14.76,3.77,21.16,2.23,15.82-3.81,21.73-2.13,28.08,12.99,2.76,6.57,6.55,8.67,13.68,8.09,8.83-.72,13.7-4.48,14.53-13.21.65-6.74,2.47-13.77,1.28-20.2-2.2-11.82-1.61-21.87,9.1-29.34.76-.53.89-1.95,1.32-2.96Zm-97.87,71.67c-8.21,44.04,33.7,87.99,69.36,86.95.24-4.57,1.75-9.62.51-13.86-4.29-14.6-8.94-29.16-14.65-43.25-3.35-8.25-10.92-13.59-20.02-13.68-11.21-.11-20.33-3.75-28.21-11.46-1.91-1.87-4.49-3.05-6.98-4.7Zm135.43-147.56c4.09-1.78,6.84-3.49,9.82-4.11,2.01-.41,4.33.73,6.51,1.17-1.14,1.66-1.95,3.79-3.49,4.88-2.64,1.85-5.74,3.04-7.52,3.94,1.86,3.39,3.36,6.1,4.85,8.81-3.09-.17-6.21-.16-9.28-.57-3.99-.53-7.95-1.39-12.06-2.13,2.52,4.19,4.16,6.92,5.8,9.64-3.06-.07-6.66.88-9.08-.4-8.11-4.28-14.47-1.28-20.94,3.31,8.31,11.46,20.57,16.03,32.04,10.4,21.36-10.5,35.95-27.59,45.74-50.28-23.82-7.34-46.57-8.06-68.72,1.89-11.42,5.13-15.97,18.17-12.15,30.06,9.52-1.23,14.78-6.75,16.98-15.99.39-1.66,3.39-2.7,5.19-4.02.5,1.89,1.18,3.77,1.43,5.69.17,1.25-.29,2.58-.47,3.88,3.4-1.34,5.39-3.44,6.8-5.87,1.26-2.17,1.56-4.93,2.91-7.02,1.05-1.63,3.06-2.63,4.65-3.91.63,2.07,1.41,4.11,1.82,6.22.19.97-.36,2.09-.83,4.41Zm.15,215.73c13.56-11.47,21.96-27.75,25.31-46.8.32-1.82-.42-4.67-1.74-5.79-4.05-3.42-17.94-2.71-22.85-.14-7.65,4.01-15.39,8.06-23.51,10.9-12.15,4.25-18.91,15.6-12.42,24.82,3.09,4.4,9.99,6.3,15.4,8.85,5.9,2.78,12.06,4.99,19.81,8.15Zm-70.52-175.18c.77-12.02-3.11-19.02-11.24-21.19-16.5-4.41-32.3-1.7-48.26,5.89,9.16,14.66,21.06,24.65,36.39,30.27,8.55,3.13,16.3-.66,22.42-11.88-6.15,1.32-10.36,2.21-14.56,3.11-2.1.45-4.2.91-6.29,1.36-.49-2.31-.97-4.63-1.29-6.15-3.87.69-7.79,1.39-11.72,2.1v-6.23c-2.57-2.76-4.64-4.97-6.7-7.19,3.18-.91,6.36-1.81,9.89-2.82.58-1.2,1.56-3.23,2.55-5.26,3.32,2.93,6.63,5.86,9.57,8.45.9-1.38,2.11-3.23,3.32-5.09,1.78,1.55,3.6,3.06,5.33,4.66,3.11,2.87,6.16,5.79,10.59,9.95Z"/>
  <path d="m717.21,379.42c6.03,5.69,12.28,9.13,14.48,14.29,2.66,6.26-4.35,8.64-9.14,11-1.01.5-2.08.91-3.16,1.23-5.29,1.56-11.15,5.2-15.4-1.01-1.97-2.89-3.72-8.56-2.26-10.65,3.62-5.18,9.15-9.03,15.48-14.86Zm8.37,16.29c-8.1-7.35-11.44-7.35-15.97-.81-.8,1.16-1.42,3.31-.86,4.31.53.94,2.9,1.64,4.11,1.28,3.99-1.18,7.83-2.89,12.72-4.78Z"/>
</svg>