<?xml version="1.0" encoding="UTF-8"?>
<svg id="Layer_1" data-name="Layer 1" xmlns="http://www.w3.org/2000/svg" viewBox="0 0 1190.55 841.89">
  <defs>
    <style>
      .cls-1 {
        fill: none;
        stroke: #FFFCF2;
        stroke-miterlimit: 10;
        stroke-width: 7px;
      }

      .cls-2 {
        font-family: ArialMT, Arial;
        font-size: 14px;
      }

      .cls-3 {
        letter-spacing: -.04em;
      }

      .cls-4 {
        fill: #FFFCF2;
      }
    </style>
  </defs>
  <path class="cls-4" d="m789.88,383.88c1.91,0,3.83.07,5.73-.03,1.09-.05,1.28.33,1.27,1.33-.04,9.52-.02,19.03-.03,28.55,0,.45,0,.89,0,1.47,2.71-1.21,5.18-2.56,7.68-3.86,3.91-2.03,7.84-4.02,11.76-6.03.14-.07.3-.13.44-.2q1.57-.71,1.57.99c0,2.99,0,5.97,0,9.17,7.2-3.64,14.18-7.34,21.42-10.8v10.86c7.16-3.64,14.2-7.23,21.52-10.95,0,1.22,0,2.07,0,2.93,0,14.3-.01,28.59.03,42.89,0,1.09-.24,1.38-1.36,1.37-26.02-.04-52.03-.04-78.05,0-1.2,0-1.4-.37-1.4-1.46.03-21.07.02-42.14.02-63.21q0-3.03,3.08-3.03c1.33,0,2.66,0,3.99,0,.77.17,1.55.16,2.32.01Zm60.66,39.28c-.83,0-1.66.02-2.48,0-.54-.02-.84.09-.82.73.04,1.74.03,3.48,0,5.21-.01.59.19.79.78.78,1.7-.03,3.39-.03,5.09,0,.58,0,.82-.16.81-.77-.04-1.7-.04-3.39-.03-5.09,0-.62-.2-.9-.86-.87-.83.04-1.65.01-2.48.01Zm-42.7,0c-1.02,0-1.86.03-2.68-.01-.63-.03-.89.17-.88.83.04,1.7.04,3.4,0,5.1-.02.72.32.8.9.79,1.58-.03,3.15-.06,4.73.01.88.04,1.06-.31,1-1.08-.05-.78,0-1.58-.02-2.36-.02-1.03.34-2.38-.17-3.02-.61-.75-2.02-.13-2.88-.26Zm17.93,3.19c0,.23,0,.27,0,.31.06,1.02-.44,2.35.2,2.99.64.64,1.97.19,2.99.19,1.1,0,2.56.5,3.22-.23.65-.71.18-2.14.19-3.25.02-3.21,0-3.22-3.21-3.2-1.07,0-2.47-.35-3.13.18-.78.63-.13,2.1-.27,3.01Z"/>
  <path d="m626.97,373.62c-6.21,8.69-12.2,10.07-21.39,5.17-6.64-3.54-11.81-8.61-15.87-14.92-1.67-2.6-1.23-4.13,1.6-5.47,7.5-3.55,15.32-5.11,23.54-4.02,8.2,1.09,12.16,5.28,13.17,13.46.08.68.2,1.35,1.38,2.12.15-1.4.4-2.79.43-4.19.07-2.94-.12-5.89.1-8.81.08-1.07,1.01-2.08,1.56-3.11.68,1.08,1.53,2.09,1.99,3.26.36.89.23,1.98.32,2.97.44.09.88.18,1.32.27.28-1.17.91-2.37.78-3.49-1.1-9.68,3.49-17.09,12.73-19.95,11.27-3.48,22.51-3.31,33.81.17,3.7,1.14,4.13,2.71,2.65,6.05-4.8,10.81-12.1,19.38-22.18,25.53-8.81,5.38-17.2,3.51-24.86-5.45-3.66.15-4.8,2.12-4.59,5.7.26,4.51.06,9.04.06,13.67,3.42.59,6.46.94,9.42,1.65,21.84,5.26,37.21,27.17,34.66,49.31-2.77,24.05-22.15,41.66-45.78,41.59-23.6-.07-43.25-17.35-45.96-40.39-3.04-25.9,14.78-48.54,40.53-51.65,1.21-.15,3.02-1.3,3.28-2.31,1-3.86.09-5.83-2.72-7.15Zm-35.75,38.68c0,3.6-1.12,7.65.2,8.75,4.81,4,9.17,8.92,16.6,8.87,7.07-.05,12.04,4.3,14.79,10.77,1.89,4.45,3.75,8.98,4.95,13.64,1.39,5.41,2.03,11,3.1,17.1,8.26.41,16.87-1.91,24.67-7.44q-1.91-3.11-7.38-4.3c-7.54-1.65-11.04-5.5-11.03-12.1.01-5.76,4.63-10.69,11.21-12.44,2.78-.74,5.89-1.57,7.96-3.38,4.13-3.61,8.57-4.1,13.56-3.15,1.25.24,2.51.39,3.77.59,2.01-16.65-12.97-37.14-28.84-39.96-1.09,1.42-1.91,3.14-3.25,4.13-3.02,2.23-3.16,4.83-3,8.42.25,5.91-.55,11.93-1.51,17.8-.3,1.81-2.3,4.29-3.99,4.77-9.17,2.57-13.49,2.78-16.83-5.97-1.79-4.71-4.01-5.64-8.64-3.8-3.43,1.37-6.47,1.3-9.72-.3-1.55-.76-3.33-1.02-6.62-1.99Zm49.43-24.25c-15.14-6.25-40.69,5.54-46.16,21.95,3.78.47,7.64,1.95,10.96,1.15,8.19-1.97,11.25-1.1,14.54,6.73,1.43,3.4,3.39,4.49,7.08,4.19,4.57-.37,7.09-2.32,7.53-6.84.34-3.49,1.28-7.13.66-10.46-1.14-6.12-.83-11.32,4.71-15.19.39-.27.46-1.01.68-1.53Zm-50.68,37.11c-4.25,22.8,17.45,45.56,35.91,45.02.13-2.37.91-4.98.26-7.18-2.22-7.56-4.63-15.1-7.59-22.39-1.73-4.27-5.66-7.04-10.37-7.08-5.8-.06-10.53-1.94-14.61-5.93-.99-.97-2.33-1.58-3.62-2.43Zm70.12-76.4c2.12-.92,3.54-1.81,5.08-2.13,1.04-.21,2.24.38,3.37.61-.59.86-1.01,1.96-1.81,2.52-1.37.96-2.97,1.57-3.89,2.04.97,1.75,1.74,3.16,2.51,4.56-1.6-.09-3.22-.08-4.8-.29-2.07-.27-4.11-.72-6.25-1.1,1.31,2.17,2.15,3.58,3,4.99-1.58-.04-3.45.46-4.7-.21-4.2-2.21-7.49-.66-10.84,1.71,4.3,5.93,10.65,8.3,16.59,5.38,11.06-5.44,18.61-14.28,23.68-26.03-12.33-3.8-24.11-4.17-35.58.98-5.91,2.65-8.27,9.41-6.29,15.56,4.93-.64,7.65-3.5,8.79-8.28.2-.86,1.76-1.4,2.68-2.08.26.98.61,1.95.74,2.95.09.65-.15,1.34-.24,2.01,1.76-.69,2.79-1.78,3.52-3.04.65-1.12.81-2.55,1.51-3.63.54-.84,1.59-1.36,2.41-2.03.33,1.07.73,2.13.94,3.22.1.5-.19,1.08-.43,2.28Zm.08,111.7c7.02-5.94,11.37-14.37,13.1-24.23.17-.94-.22-2.42-.9-3-2.09-1.77-9.29-1.41-11.83-.07-3.96,2.08-7.97,4.17-12.17,5.65-6.29,2.2-9.79,8.08-6.43,12.85,1.6,2.28,5.18,3.26,7.97,4.58,3.05,1.44,6.24,2.59,10.26,4.22Zm-36.51-90.7c.4-6.23-1.61-9.85-5.82-10.97-8.54-2.28-16.72-.88-24.99,3.05,4.74,7.59,10.9,12.77,18.84,15.67,4.43,1.62,8.44-.34,11.61-6.15-3.19.68-5.36,1.15-7.54,1.61-1.09.23-2.17.47-3.26.71-.25-1.2-.5-2.4-.67-3.19-2,.36-4.03.72-6.07,1.09v-3.22c-1.33-1.43-2.4-2.58-3.47-3.72,1.65-.47,3.3-.94,5.12-1.46.3-.62.81-1.67,1.32-2.72,1.72,1.52,3.44,3.03,4.96,4.38.47-.71,1.09-1.67,1.72-2.63.92.8,1.86,1.58,2.76,2.41,1.61,1.48,3.19,3,5.48,5.15Z"/>
  <path d="m654.41,403.48c3.12,2.94,6.36,4.72,7.5,7.4,1.38,3.24-2.25,4.47-4.73,5.69-.52.26-1.08.47-1.64.63-2.74.81-5.78,2.69-7.97-.52-1.02-1.5-1.93-4.43-1.17-5.52,1.87-2.68,4.74-4.68,8.01-7.69Zm4.33,8.43c-4.2-3.81-5.92-3.8-8.27-.42-.42.6-.73,1.71-.45,2.23.27.49,1.5.85,2.13.66,2.07-.61,4.06-1.5,6.59-2.47Z"/>
  <path d="m627.65,181.13c-24.48,0-44.32,19.84-44.32,44.32s19.84,44.32,44.32,44.32,44.32-19.84,44.32-44.32-19.84-44.32-44.32-44.32Zm-2.21,73.53h-.23c-4.43,0-8.86,0-13.3,0-.53,0-1.07.03-1.59-.05-2.65-.42-4.74-1.7-5.91-4.17-1.52-3.2-3.26-6.28-4.9-9.42-1.47-2.82-3.02-5.59-4.46-8.42-.84-1.66-.84-3.38.14-5.03,1.39-2.35,2.79-4.7,4.18-7.05.02-.04.05-.09.08-.15-1.85-1.1-3.68-2.19-5.52-3.28,0-.01,0-.03,0-.04.06,0,.13-.01.19-.01,5.35,0,10.69,0,16.04,0,.14,0,.22.05.29.17,2.96,4.79,5.92,9.58,8.89,14.38.03.05.06.11.08.19-2.1-1.27-4.19-2.54-6.31-3.83-1.92,3.32-3.84,6.63-5.77,9.97h18.1v16.77Zm3.56-52.3c-2.95,5.31-5.89,10.6-8.83,15.9-4.9-2.69-9.79-5.38-14.69-8.07.27-.48.53-.95.79-1.42,2.12-3.82,4.24-7.65,6.37-11.46.44-.78,1.09-1.4,1.79-1.96.97-.77,2.07-1.27,3.3-1.47.86-.14,1.72-.14,2.58.06.48.12.97.09,1.45.1,1.3.02,2.61.03,3.91.04,1.48.02,2.96.03,4.44.05,1.01.01,2.02.03,3.03.04,2.11.02,4.23.03,6.34.07.42,0,.85.16,1.27.25,1.37.3,2.38,1.11,3.08,2.3,1.39,2.36,2.78,4.72,4.17,7.09.02.04.05.08.09.13,1.85-1.08,3.7-2.15,5.59-3.25-.04.08-.06.13-.08.17-1.76,3.19-3.53,6.37-5.29,9.55-.83,1.5-1.66,3-2.49,4.51-.06.1-.11.16-.25.16-1.28.06-2.57.13-3.85.19-1.65.08-3.31.16-4.96.24-1.92.09-3.84.19-5.77.29-.84.04-1.68.08-2.54.08,2.13-1.21,4.26-2.43,6.4-3.65-1.96-3.32-3.9-6.62-5.86-9.95Zm33.28,31.11c-.4.89-.92,1.7-1.51,2.47-.34.44-.61.92-.91,1.39-3.04,4.82-6.07,9.64-9.12,14.45-.65,1.02-1.61,1.67-2.74,2.09-.78.29-1.59.29-2.4.26-.48-.02-.95,0-1.43-.02-2-.02-4.01-.05-6.01-.07-.06,0-.12,0-.2,0-.04,2.14-.07,4.27-.11,6.46-.06-.09-.09-.14-.12-.19-2.67-4.64-5.34-9.28-8.01-13.92-.06-.11-.06-.19,0-.3,2.69-4.96,5.37-9.93,8.05-14.89.03-.05.06-.1.13-.14-.06,2.44-.12,4.88-.18,7.34,3.85.03,7.69.06,11.57.09-3.02-5.26-6.03-10.48-9.04-15.73,4.83-2.79,9.65-5.57,14.49-8.36.03.05.06.09.09.14,2.42,4.23,4.84,8.45,7.25,12.69.38.67.57,1.42.68,2.19.05.32.07.64.11.96v.59c-.06.87-.22,1.71-.58,2.51Z"/>
  <path d="m797.35,325.12c-1.01-4.45-3.34-6.62-7.05-6.59-3.6.03-5.89,2.23-6.92,6.82h-17.8c-1.59-5.05-3.67-6.93-7.42-6.82-3.47.11-5.63,2.23-6.7,6.64-1.64.53-2.53.13-3.11-1.72-3.17-10.2-6.5-20.36-9.76-30.54-.18-.55-.32-1.1-.53-1.82h72.75c-.51,1.66-.99,3.25-1.5,4.84-2.93,9.13-5.9,18.24-8.77,27.38-.52,1.67-1.2,2.6-3.18,1.81Z"/>
  <path d="m774.42,283.76c12.28,0,24.55,0,36.83,0,.52,0,1.05-.03,1.57,0,1.75.14,3.04,1.41,3.06,2.99.02,1.59-1.23,2.92-2.99,3.03-1.22.08-2.44.03-3.66.03-23.74,0-47.48,0-71.22,0-.81,0-1.64.03-2.44-.08-1.55-.22-2.71-1.54-2.61-3,.11-1.57.98-2.59,2.55-2.9.56-.11,1.16-.08,1.74-.08,12.39,0,24.79,0,37.18,0Z"/>
  <path d="m811.81,282.58h-18.33c.49-1.78.9-3.11,2.62-4.25,3.43-2.26,6.83-2.25,10.59-1.37,2.23.52,3.52,2.15,5.06,3.48.35.3.05,1.35.05,2.14Z"/>
  <path d="m774.56,280.09c-.34,1.06-.56,1.77-.77,2.45h-17.56c.55-1.81,1.07-3.11,2.74-4.25,3.64-2.49,7.34-2.32,11.12-1.1,1.62.52,2.97,1.9,4.47,2.9Z"/>
  <path d="m755.05,282.55h-17.24c.53-1.78.97-3.09,2.66-4.24,3.62-2.46,7.3-2.38,11.08-1.15,1.5.49,2.86,1.7,4,2.87.34.35-.3,1.65-.49,2.52Z"/>
  <path d="m775.08,282.58c.47-2.01,1.23-3.23,2.91-4.4,3.67-2.57,7.37-2.04,11.12-.94,1.39.41,2.66,1.63,3.65,2.77.34.39-.33,1.66-.54,2.57h-17.14Z"/>
  <path d="m772.95,270.1c-1.3.76-2.49,1.35-3.57,2.11-1.05.74-1.96,1.66-2.96,2.46-.28.23-.64.45-.98.48-.3.03-.7-.12-.93-.33-2.41-2.18-4.81-4.38-8.58-4.04,2.58-4.36,11.54-6.52,17.02-.68Z"/>
  <path d="m777.61,270.59c3.66-4.61,12.24-6.04,17.11-.46-3.04.99-5.89,2.3-8.33,4.78-2.44-1.91-4.62-4.75-8.78-4.32Z"/>
  <path d="m790.41,319.62c3.12,0,5.65,2.52,5.68,5.64.03,3.18-2.57,5.82-5.73,5.81-3.06,0-5.69-2.62-5.72-5.68-.03-3.16,2.58-5.78,5.76-5.78Zm-.06,2.56c-1.67-.02-3.08,1.37-3.12,3.08-.04,1.74,1.26,3.11,2.99,3.17,1.79.06,3.24-1.34,3.23-3.12-.01-1.68-1.43-3.1-3.1-3.13Z"/>
  <path d="m758.52,319.63c3.18.05,5.76,2.73,5.65,5.88-.1,3.07-2.78,5.64-5.82,5.57-3.18-.08-5.71-2.73-5.62-5.91.09-3.13,2.66-5.59,5.79-5.54Zm2.98,5.75c.02-1.68-1.36-3.14-3.04-3.18-1.73-.05-3.24,1.45-3.22,3.18.02,1.69,1.42,3.05,3.14,3.05,1.71,0,3.1-1.35,3.12-3.06Z"/>
  <path d="m767.29,265.67c4.49-4.68,12.71-4.43,16.03-.34-1.48.81-2.97,1.57-4.4,2.42-.68.4-1.47.86-1.82,1.51-.73,1.35-1.63,1.02-2.59.52-.4-.21-.73-.58-1.08-.88-.89-.75-1.68-1.67-2.69-2.21-.98-.53-2.17-.67-3.45-1.03Z"/>
  <path d="m767.44,275.35c2.97-4.67,12.56-6.03,16.84-.55-1.54.46-3.25.8-4.82,1.47-1.62.69-3.11,1.71-4.77,2.65-.9-.75-1.87-1.84-3.08-2.45-1.2-.61-2.65-.74-4.16-1.12Z"/>
  <path d="m762.7,275.04c-2.16,1.21-4.31,2.42-6.69,3.76-2.32-3.08-6.02-3.27-9.69-3.68,3.46-4.34,12.24-5.14,16.39-.08Z"/>
  <path d="m804.7,275.34c-4.55-1.31-7.77,1.4-11.13,3.3-1.85-1.1-3.69-2.19-5.55-3.3,2.09-3.9,11.36-6.04,16.68,0Z"/>
  <circle class="cls-1" cx="631.58" cy="415.57" r="126.6"/>
  <path d="m782.98,583.38h-32.12c-.47,4.09-1.85,7.91-5.59,9.97-2.18,1.2-4.89,2.07-7.35,2.04-6.34-.06-10.03-4.02-11.95-12.11-1.32,0-2.7.04-4.08,0-2.8-.11-4.43-1.6-4.44-4.37-.04-15.48-.04-30.95,0-46.43,0-2.51,1.52-4.01,4-4.32.69-.09,1.39-.06,2.08-.06,17.47,0,34.93,0,52.4,0,4.77,0,6.07,1.3,6.08,6.01,0,1.47,0,2.94,0,4.83,2.16,0,4.2-.01,6.25,0,6.02.04,9.71,2.7,11.68,8.47,1.18,3.45,2.24,6.94,3.56,10.34.33.84,1.37,1.69,2.26,1.97,2.23.69,4.57,1.01,6.85,1.55,2.81.67,3.86,2.02,3.88,4.99.03,4,.03,8,0,12-.03,3.54-1.51,4.98-5.12,5.02-1.12.01-2.24,0-3.56,0-.46,4.12-1.82,7.85-5.43,9.92-2.17,1.24-4.84,2.17-7.3,2.2-6.36.09-10.37-4.1-12.08-12.03Zm-27.68-25.78c.14.24.28.48.42.71-1.44,1.32-2.89,2.63-4.32,3.96-1.42,1.32-2.25,2.87-.65,4.49,1.58,1.61,3.13.88,4.51-.53,2.93-2.97,5.91-5.89,8.84-8.86,1.92-1.96,1.9-3.04-.09-5.06-2.93-2.97-5.91-5.89-8.84-8.86-1.39-1.41-2.92-2.15-4.49-.5-1.45,1.52-.75,3.01.57,4.32,1.43,1.43,2.82,2.9,4.67,4.8-1.54,0-2.39,0-3.24,0-5.3,0-10.6,0-15.9,0-3.3,0-4.86.88-4.64,2.82.31,2.76,2.44,2.72,4.52,2.7,2-.03,4,0,5.99,0,4.21,0,8.43,0,12.64,0Zm41.52.65c-1.18-3.52-2.04-6.81-3.42-9.86-.54-1.2-2.14-2.47-3.43-2.68-2.5-.42-5.13-.12-7.78-.12v12.67h14.63Zm-52.67,25.14c-.02-3.1-2.51-5.65-5.58-5.71-3.1-.06-5.86,2.67-5.84,5.78.03,3.17,2.69,5.71,5.92,5.63,3.16-.07,5.52-2.52,5.5-5.71Zm51.34,5.71c3.1-.04,5.63-2.55,5.66-5.62.03-3.12-2.69-5.84-5.81-5.8-3.17.04-5.7,2.73-5.6,5.94.1,3.12,2.6,5.51,5.74,5.48Z"/>
  <path d="m470.38,544.93c.15-1.88.73-3.63,1.34-5.38,2.05-5.88,5.93-10.36,10.77-14.11,4.14-3.21,8.83-5.29,13.8-6.81.58-.18,1.16-.34,1.74-.51.06-.02.13,0,.27.01.04.48.11.95.11,1.43.07,4.85.13,9.7.2,14.55.01.81.04,1.62.09,2.43.1,1.48,1.31,2.73,2.81,2.79,1.83.08,3.66.08,5.49.09,1.81,0,3.62-.06,5.43-.05,1.67.01,2.51-1.1,3.28-2.33.1-.16.07-.4.07-.61.02-5.13.02-10.25.05-15.38,0-.98.07-1.96.11-2.97.19.02.31,0,.42.04,5.54,1.62,10.8,3.82,15.41,7.37,4.96,3.82,8.77,8.53,10.92,14.47.51,1.4.79,2.89,1.17,4.34.11.43-.01.67-.49.75-4.29.78-8.56,1.72-12.87,2.34-4.32.62-8.67,1.02-13.02,1.33-5.67.4-11.35.35-17.02.17-10.03-.32-19.93-1.67-29.72-3.85-.11-.03-.22-.07-.34-.12Z"/>
  <path d="m518.14,583.91c-8.16,0-16.33,0-24.49-.02-.56,0-.87.17-1.13.66-.85,1.6-2,2.96-3.26,4.25-4.77,4.88-14.7,6.59-21.66.46-.23-.21-.45-.44-.69-.62-.83-.63-.93-1.48-.8-2.42.06-.43.31-.71.72-.78.61-.1,1.23-.19,1.85-.2,2.31-.03,4.63-.04,6.94-.03.38,0,.58-.12.77-.45,1.38-2.47,2.79-4.92,4.17-7.39.09-.15.09-.44,0-.59-1.4-2.44-2.83-4.86-4.23-7.3-.18-.31-.4-.36-.72-.37-2.66-.07-5.31-.15-7.97-.22-.75-.02-1.36-.23-1.66-.98-.28-.7-.02-1.29.42-1.81,1.36-1.57,3.09-2.63,4.92-3.54,6.57-3.26,16.14-1.44,20.7,6.32.65,1.11,1.32,1.48,2.6,1.48,10.18-.05,20.37,0,30.55.01,5.92.01,11.84.03,17.76.06.27,0,.55.07.79.17,1.53.61,2.77,1.6,3.7,2.97.47.7.82,1.45.85,2.3.05,1.46.22,2.94-.55,4.3-.98,1.73-2.45,2.87-4.27,3.58-.2.08-.44.06-.66.06-8.22,0-16.43,0-24.65,0,0,.04,0,.07,0,.11Zm1.06-5.08c7.07,0,14.15-.02,21.22.03.97,0,1.42-.46,1.77-1.18.46-.94-.41-2.29-1.45-2.29-14.13-.03-28.26-.06-42.4-.13-.9,0-1.41.36-1.88.99-.35.47-.46.99-.13,1.5.34.53.59,1.11,1.44,1.11,7.14-.03,14.29-.02,21.43-.02Z"/>
  <path d="m507.09,558.73c-5.24-.21-10.49-.33-15.72-.67-6.88-.44-13.68-1.48-20.44-2.81-1.25-.25-2.5-.51-3.74-.79-1.13-.26-1.5-.73-1.38-1.87.21-2,.67-3.94,1.36-5.83.18-.49.46-.63,1-.5,5.91,1.48,11.9,2.57,17.95,3.32,8.78,1.09,17.6,1.48,26.45,1.19,5.92-.19,11.81-.69,17.68-1.49,4.96-.68,9.87-1.64,14.75-2.72.52-.12,1.05-.19,1.58-.29.29-.06.48.04.55.33.51,2.09,1.03,4.18,1.51,6.28.14.6-.2,1.07-.76,1.26-.94.32-1.9.64-2.87.83-7.07,1.43-14.2,2.48-21.4,3.05-5.49.43-10.99.61-16.5.71Z"/>
  <path d="m500.33,524.95c0-3.59,0-7.18,0-10.77,0-.81.36-1.27,1.18-1.39.61-.09,1.24-.12,1.86-.13,3.14-.02,6.28-.02,9.42-.03.45,0,.97.51,1.07,1.13.1.61.15,1.23.15,1.85.03,4.93.04,9.87.05,14.8,0,1.93,0,3.86,0,5.8,0,.56-.87,1.47-1.41,1.47-3.29-.02-6.59-.04-9.88-.08-.45,0-.9-.07-1.33-.16-.71-.15-1.03-.54-1.05-1.28-.05-2.21-.09-4.41-.12-6.62-.02-1.54,0-3.07,0-4.61.02,0,.05,0,.07,0Z"/>
  <path d="m418.88,322.81c1.58-4.27,4.66-5.82,9.17-5.72,9.37.2,18.75.09,28.12.04,2.26-.01,4.01.91,5.91,2.03,1.5.89,3.58.8,5.55,1.18.13-2.23.23-4,.35-5.95-3.04,0-6.39-.85-8.96.19-4.4,1.79-8.71.68-13.04.95-4.54.29-9.1.06-13.66.06-2.27,0-4.54,0-6.98,0-.06-.66-.15-1.23-.15-1.8-.01-6.49.04-12.98-.04-19.46-.02-1.65.46-2.18,2.15-2.17,6.22.02,6.51-.22,9.96,4.96,2.88,4.33,6.2,6.59,11.5,5.6,1.68-.31,3.47-.07,5.21-.04,2.5.04,3.8,1.3,3.87,3.83.05,1.86.01,3.73.01,5.9,3.55,0,6.99.02,10.44-.03.35,0,.68-.52,1.06-.72.56-.29,1.15-.49,1.74-.73-.04.59.08,1.27-.15,1.77-2.46,5.31-1.61,10.51,2.74,13.91,1.61,1.26,3.82,1.73,5.72,2.64.62.3,1.12.83,1.68,1.26-.68.21-1.41.69-2.04.58-4.79-.84-8.47-3.28-10.29-7.93-.79-2.02-2.32-.98-3.54-1.25-.37-.08-.78.04-1.28.07.02.47.02.86.06,1.23.53,4.59-2.45,8.31-7.04,8.36-10.31.11-20.62.11-30.93,0-3.84-.04-6.02-2.47-7.14-5.98v-2.81Zm8.25-28.8v8.53h12.07c-2.2-2.8-4.19-5.36-6.23-7.88-.26-.32-.75-.59-1.15-.61-1.52-.07-3.04-.03-4.69-.03Zm19.31,33.29c1.58-.04,2.93-1.41,2.93-2.95,0-1.6-1.52-3.07-3.12-3.01-1.67.06-2.95,1.48-2.86,3.2.09,1.63,1.39,2.81,3.04,2.76Zm-16.68-2.85c.04-1.69-1.32-3.12-2.95-3.12-1.52,0-2.97,1.4-3.03,2.91-.06,1.62,1.36,3.06,3.03,3.05,1.67,0,2.91-1.2,2.96-2.85Zm26.42-3.11c-1.61-.04-3.1,1.41-3.1,3.03,0,1.56,1.34,2.9,2.93,2.94,1.66.04,2.96-1.15,3.04-2.77.09-1.7-1.22-3.14-2.88-3.19Zm-19.64,0c-1.62.02-3.01,1.51-2.94,3.14.07,1.64,1.35,2.84,3,2.82,1.62-.01,2.93-1.29,2.97-2.88.04-1.61-1.44-3.11-3.03-3.09Zm11.59-13.45c1.54,0,3.08.07,4.61-.05.45-.04.86-.62,1.28-.96-.42-.32-.83-.9-1.26-.91-3.01-.08-6.02-.08-9.02,0-.43.01-.85.59-1.27.9.42.34.81.93,1.25.97,1.46.12,2.94.05,4.41.05Zm.17,2.37c-1.47,0-2.95-.09-4.41.05-.5.05-.95.64-1.42.98.43.33.86.93,1.3.94,3.01.08,6.02.08,9.03,0,.41-.01.81-.67,1.21-1.02-.43-.31-.84-.86-1.3-.89-1.46-.12-2.94-.04-4.41-.04Z"/>
  <path d="m507.11,288.76c.61,5.18,1.21,10.21,1.79,15.24.6,5.17,1.23,10.35,1.74,15.53.09.88-.16,1.99-.67,2.69-2.01,2.75-4.17,5.39-6.32,8.04-2.93,3.61-6.65,4.03-10.36,1.17-2.43-1.88-4.81-3.84-7.25-5.71-.96-.74-1.03-1.36-.26-2.31,2.62-3.21,5.18-6.47,7.75-9.72,1.41-1.78,1.32-2.34-.48-3.76-1.36-1.08-2.78-2.1-4.09-3.24-1.39-1.21-2.43-.98-3.51.43-1.69,2.23-3.48,4.4-5.38,6.78-1.66-1-3.28-1.97-5.04-3.03,1.13-1.5,2.16-2.86,3.45-4.56-1.68-.13-3.1-.4-4.5-.3-1.77.12-2.88-.55-3.69-2.07-.53-.99-1.25-1.88-1.99-2.98,3.08-1.31,6.05-2.57,9.28-3.95-1.67-.91-3.1-1.69-4.51-2.46.61-1.94,2.02-2.23,3.74-2.42,9.77-1.08,19.52-2.27,29.28-3.42.26-.03.53.02,1.01.05Z"/>
  <path d="m509.09,286.15c-3.52.39-6.89.76-10.26,1.15-8.17.94-16.33,1.91-24.5,2.83-2.22.25-4.14-1.35-4.38-3.49-.24-2.11,1.37-3.97,3.87-4.29,3.78-.48,7.57-.86,11.36-1.3,8.77-1.02,17.53-2.04,26.3-3.07.4-.05.8-.11,1.2-.13,2.93-.21,3.28-.01,3.62,2.86,1.2,9.95,2.34,19.9,3.5,29.85.34,2.92.67,5.84,1.05,8.75.33,2.5-.89,4.44-3.09,4.81-2.44.4-4.24-.86-4.58-3.56-.96-7.49-1.79-14.99-2.67-22.48-.46-3.9-.92-7.8-1.4-11.92Z"/>
  <path d="m446.64,452.49c-.37,0-.62,0-.88,0-5.01,0-10.02,0-15.03,0-1.53,0-1.87-.35-1.87-1.92,0-7.6,0-15.2,0-22.81,0-2.95-.02-5.91.02-8.86,0-.38.21-.86.49-1.11,2.72-2.45,5.49-4.85,8.23-7.28,2.8-2.48,5.57-4.98,8.37-7.46,2.8-2.48,5.61-4.95,8.41-7.42.13-.12.28-.21.47-.35,1.19,1.05,2.36,2.08,3.53,3.11,1.57,1.39,3.15,2.77,4.71,4.16,1.74,1.55,3.47,3.11,5.22,4.66,2.65,2.34,5.3,4.67,7.95,7,1.34,1.18,2.7,2.36,4.02,3.57.25.23.43.65.43.99.02,10.66.02,21.32.02,31.97,0,1.37-.38,1.73-1.73,1.73-5.06,0-10.12,0-15.18,0-.23,0-.46,0-.83,0,0-.34,0-.63,0-.92,0-4.24,0-8.47,0-12.71,0-1.74-.45-2.19-2.19-2.19-4.06,0-8.12,0-12.17,0-1.46,0-1.98.53-1.98,2.01,0,4.26,0,8.53,0,12.79,0,.3,0,.61,0,1.03Z"/>
  <path d="m454.82,390.41c-11.06,9.79-22.04,19.5-33.07,29.25-1.34-1.49-2.62-2.91-3.89-4.33.73-.68,1.4-1.34,2.1-1.96,1.99-1.77,4-3.52,5.99-5.28,4.51-3.98,9.02-7.95,13.53-11.93,2.85-2.53,5.69-5.07,8.54-7.6,2.07-1.83,4.15-3.65,6.22-5.49.4-.35.71-.39,1.12-.02,1.68,1.53,3.38,3.05,5.09,4.56,1.69,1.49,3.42,2.93,5.1,4.42,2.22,1.96,4.42,3.96,6.64,5.93,2.62,2.33,5.26,4.65,7.88,6.97,2.18,1.94,4.35,3.89,6.54,5.82,1.57,1.39,3.14,2.78,4.73,4.15.28.24.42.42.12.75-1.18,1.31-2.34,2.63-3.58,4.03-11.03-9.76-22.01-19.48-33.07-29.26Z"/>
  <path d="m428.86,401.2c0-1.21,0-2.21,0-3.21,0-3.26.01-6.52-.01-9.78,0-.63.16-.85.82-.84,2.59.03,5.19.01,7.78.02.2,0,.4.03.66.05.03.22.08.41.08.6,0,.67,0,1.33-.01,2-.04,3.25-.09,3.19-2.62,5.27-1.93,1.59-3.72,3.35-5.58,5.03-.3.27-.63.5-1.1.87Z"/>
  <path d="m384.79,187.75c.38.11.76.2,1.13.32,2.21.73,3.76,2.19,4.63,4.34.31.76.45,1.59.69,2.46.14,0,.37,0,.61,0,2.98,0,5.96,0,8.94.02,1.16,0,2.06.84,2.13,1.99.02.34.16.39.44.37.78-.04,1.56,0,2.28.38,1.28.68,1.97,1.75,2.04,3.2.02.36,0,.72,0,1.09h-51.96c-.29-2.16.58-3.84,2.47-4.47.58-.19,1.24-.16,1.87-.2.25-.01.35-.08.37-.34.09-1.19.94-2.02,2.13-2.02,3.12-.02,6.23-.01,9.35-.02.09,0,.18,0,.27,0,.11-.55.18-1.1.33-1.63.58-2.08,1.82-3.66,3.74-4.66.65-.34,1.39-.51,2.09-.75.07-.03.15-.05.22-.08,2.08,0,4.16,0,6.25,0Zm1.44,7.1c-.09-1.18-1.31-2.28-2.58-2.3-1.3-.02-2.59,0-3.89,0-.85,0-1.55.36-2.09,1.01-.3.36-.52.78-.58,1.29h9.13Z"/>
  <path d="m365.12,249.24c-2.29-14.97-4.58-29.92-6.87-44.9h46.84c-2.29,14.97-4.58,29.93-6.87,44.9h-33.1Zm14.19-7.05c-.04-.76-.07-1.49-.1-2.22-.08-1.53-.17-3.06-.25-4.6-.06-1.09-.1-2.19-.16-3.28-.1-1.83-.21-3.65-.31-5.47-.06-1.15-.1-2.3-.16-3.45-.12-2.38-.26-4.76-.38-7.13-.08-1.47-.15-2.93-.23-4.4,0-.08-.11-.23-.17-.23-.83-.02-1.66-.01-2.51-.01,0,.25,0,.48,0,.7.08,1.7.17,3.4.25,5.11.06,1.21.1,2.41.16,3.62.12,2.42.25,4.84.37,7.27.08,1.69.15,3.38.23,5.08.08,1.72.17,3.45.26,5.17.06,1.2.1,2.39.17,3.59,0,.09.11.25.17.25.88.02,1.76.01,2.68.01Zm6.34-30.78c-.47,10.26-.94,20.5-1.41,30.78.85,0,1.65,0,2.45-.01.07,0,.18-.18.18-.28.08-1.43.14-2.86.21-4.29.06-1.3.11-2.59.18-3.89.1-1.99.2-3.99.3-5.98.06-1.3.1-2.59.17-3.89.12-2.47.25-4.94.38-7.41.05-.89.1-1.78.13-2.67.02-.77,0-1.55,0-2.35h-2.59Zm-20.75,0c0,.1,0,.18,0,.26.21,1.53.42,3.06.63,4.59.3,2.19.62,4.38.92,6.57.35,2.57.69,5.14,1.04,7.71.29,2.12.59,4.24.88,6.37.23,1.69.45,3.38.69,5.06.01.08.16.21.25.21.33.03.66.01.98.01.39,0,.78,0,1.2,0-1.34-10.3-2.67-20.54-4-30.78h-2.59Zm30.95,0c-1.33,10.27-2.66,20.5-3.99,30.76h2.39c1.33-10.25,2.66-20.49,3.99-30.76h-2.39Z"/>
  <g>
    <line class="cls-1" x1="449.37" y1="269.76" x2="430.49" y2="250.88"/>
    <polygon class="cls-4" points="440.06 245.64 419.83 240.22 425.25 260.45 440.06 245.64"/>
  </g>
  <text class="cls-2" transform="translate(598.12 169.9)"><tspan x="0" y="0">Recycling</tspan></text>
  <text class="cls-2" transform="translate(832.53 291.61)"><tspan x="0" y="0">Raw Material </tspan><tspan x="0" y="16.8">Extraction</tspan></text>
  <text class="cls-2" transform="translate(883.59 421.87)"><tspan x="0" y="0">Production</tspan></text>
  <text class="cls-2" transform="translate(836.93 566.52)"><tspan class="cls-3" x="0" y="0">T</tspan><tspan x="8.03" y="0">ransport</tspan></text>
  <text class="cls-2" transform="translate(339.53 313.89)"><tspan x="0" y="0">Demolition</tspan></text>
  <text class="cls-2" transform="translate(329.2 174.77)"><tspan class="cls-3" x="0" y="0">W</tspan><tspan x="12.69" y="0">aste Disposal</tspan></text>
  <text class="cls-2" transform="translate(375.13 421.87)"><tspan x="0" y="0">Use</tspan></text>
  <text class="cls-2" transform="translate(365.11 566.52)"><tspan x="0" y="0">Construction</tspan></text>
</svg>