<?xml version="1.0" encoding="UTF-8"?>
<svg id="Layer_1" data-name="Layer 1" xmlns="http://www.w3.org/2000/svg" viewBox="0 0 392.39 447.97">
  <defs>
    <style>
      .cls-1 {
        fill: #fff;
      }
    </style>
  </defs>
  <path d="m295.48,447.97c-53.06-.13-96.47-43.93-96.03-96.88.44-53.04,44.06-95.72,97.49-95.39,52.48.32,95.59,43.81,95.44,96.29-.15,53.04-43.65,96.12-96.91,95.99Zm-69.5-144.64c-9.16,12-14.39,26.54-14.6,43.11h33.17c9.21-21.06,3.52-35.49-18.57-43.11Zm121.97,43.13h35.84c-5.83-16.01-11.06-30.36-15.93-43.73-23.86,8.55-29.5,22.95-19.91,43.73Zm35.89,11.51c-13.3,0-22.73-.3-32.11.23-2.11.12-5.28,2.83-5.89,4.94-5.5,18.99-4.61,21.22,11.26,33.17,2.4,1.81,4.85,3.55,9.44,6.91,5.68-14.86,10.98-28.72,17.29-45.25Zm-175.59.72c6.09,15.7,11.53,29.69,17.25,44.43,26.39-19.34,27.33-21.86,18.28-44.43h-35.52Zm81.27-39.96v-48.37c-.96-.35-1.91-.7-2.87-1.05-7.99,13.73-15.98,27.47-24.92,42.83,10.87,2.58,18.81,4.46,27.79,6.59Zm-2.54,116.36c.96-.45,1.92-.89,2.88-1.34v-47.13c-8.89,1.79-17.08,3.43-28.51,5.73,9.45,15.75,17.54,29.24,25.63,42.74Zm18.54-165.54c-1.11.5-2.21.99-3.32,1.49v47.47c9.02-2.07,17.14-3.93,28.1-6.44-9.07-15.57-16.93-29.04-24.78-42.52Zm-3.24,116.39v47.13c1.06.5,2.12.99,3.18,1.49,7.91-13.43,15.83-26.86,24.87-42.21-11.37-2.6-19.29-4.41-28.05-6.41Zm-41.92-62.8c-1.06,7.47-2.13,15-3.28,23.14h32.77v-16.81c-9.83-2.11-18.97-4.07-29.49-6.33Zm75.11,23.75c-1.23-8.53-2.29-15.85-3.39-23.53-10.9,2.41-20.33,4.5-29.6,6.54v16.99h33Zm-33.13,11.92v16.52c10.05,2.06,19.42,3.97,29.98,6.14.97-7.92,1.85-15.06,2.78-22.65h-32.75Zm-12.21-.02h-33.01c1.01,7.96,1.89,14.93,2.82,22.28,10.91-2.33,20.41-4.37,30.19-6.46v-15.82Zm-59.21-66.34c9.19,6.38,15.16,10.54,20.97,14.57,7.09-13.09,13.35-24.65,19.62-36.21-.46-.78-.93-1.56-1.39-2.34-12.22,7.47-24.44,14.94-39.2,23.97Zm91.29-24.01c-.64.83-1.27,1.66-1.91,2.48,6.39,11.74,12.77,23.47,19.6,36.02,6.17-4.66,11.78-8.9,20.02-15.11-13.86-8.6-25.79-16-37.71-23.39Zm-.69,162.58c.53,1.01,1.06,2.01,1.6,3.02,11.52-7.06,23.04-14.12,36.56-22.4-8.47-6.02-14.17-10.08-20.09-14.3-6.32,11.79-12.19,22.74-18.06,33.68Zm-53.64,2.85c.72-1.03,1.44-2.06,2.16-3.08-5.77-10.93-11.54-21.87-17.74-33.61-5.92,4.34-11.57,8.49-19.78,14.52,13.12,8.23,24.24,15.2,35.36,22.18Z"/>
  <path d="m308.48,75.62h-65.42V11.69H12.14v379.25h12.27c50.22,0,100.45,0,150.67.02,3.41,0,7.04-.42,10.16.59,1.9.62,3.85,3.49,4.19,5.6.21,1.3-2.32,3.83-4.09,4.46-2.39.84-5.25.47-7.9.47-54.79.02-109.58-.21-164.36.21-9.91.08-13.09-2.69-13.06-12.85C.32,263.87.32,138.31,0,12.76-.03,2.51,3.21-.05,13.07,0c75.71.37,151.43.06,227.14.49,5.65.03,12.57,2.85,16.7,6.73,18.86,17.69,37.23,35.95,55.06,54.68,3.96,4.16,7.05,11.06,7.11,16.73.54,50.6.32,101.2.31,151.81,0,2.28.6,4.91-.32,6.75-1.17,2.33-3.62,4.01-5.52,5.96-1.67-2.1-3.99-3.97-4.84-6.36-.84-2.37-.23-5.26-.23-7.93,0-46.42,0-92.84,0-139.25v-13.99Zm-54.15-10.7h41.32c-13.6-13.77-27.64-27.98-41.32-41.84v41.84Z"/>
  <path d="m157.94,118.93c-33.81,0-67.63.16-101.44-.23-3.6-.04-7.15-3.32-10.73-5.09,3.45-1.94,6.9-5.55,10.36-5.57,68.76-.33,137.53-.33,206.29,0,3.38.02,6.75,3.75,10.12,5.76-3.63,1.71-7.25,4.87-10.89,4.91-34.57.38-69.14.22-103.71.22Z"/>
  <path d="m157.93,159.75c-32.67,0-65.34,0-98.01,0-2.66,0-5.58.62-7.9-.29-2.4-.94-4.2-3.39-6.27-5.18,1.95-1.86,3.63-4.27,5.93-5.39,1.86-.9,4.47-.26,6.75-.26,67.24,0,134.47,0,201.71,0,2.65,0,5.49-.39,7.9.41,1.76.58,4.29,2.97,4.14,4.29-.23,2.1-2.01,4.98-3.86,5.73-2.65,1.08-5.95.66-8.98.66-33.81.03-67.62.02-101.43.02Z"/>
  <path d="m159.09,239.96c-34.19,0-68.39.16-102.57-.23-3.6-.04-7.16-3.31-10.74-5.08,3.45-1.94,6.9-5.56,10.36-5.58,68.76-.33,137.53-.33,206.29,0,3.39.02,6.75,3.75,10.13,5.75-3.63,1.71-7.24,4.87-10.89,4.91-34.19.38-68.38.23-102.57.22Z"/>
  <path d="m158.01,199.59c-33.08,0-66.17.01-99.25-.02-3.03,0-6.22.23-9.02-.66-1.63-.52-3.62-3.05-3.61-4.67.01-1.62,2.05-4.19,3.66-4.62,3.23-.85,6.76-.65,10.17-.65,66.17-.03,132.34-.02,198.51-.02.76,0,1.62-.24,2.26.04,3.95,1.71,7.86,3.53,11.78,5.31-3.94,1.76-7.87,5.01-11.83,5.05-34.22.4-68.45.23-102.67.23Z"/>
  <path d="m125.34,280.77c-23.14,0-46.28.25-69.41-.27-3.41-.08-6.75-3.74-10.12-5.75,3.25-1.7,6.49-4.86,9.74-4.88,46.65-.32,93.31-.34,139.96.03,3.43.03,6.83,3.64,10.24,5.59-3.67,1.76-7.31,4.96-11.01,5.04-23.13.47-46.27.24-69.41.23Z"/>
  <path d="m104.56,320.59c-16.72,0-33.44.24-50.14-.23-2.9-.08-5.72-3.16-8.58-4.86,2.72-1.83,5.41-5.24,8.15-5.26,33.81-.37,67.62-.37,101.43-.02,2.93.03,5.83,3.18,8.74,4.88-3.15,1.83-6.25,5.15-9.46,5.25-16.7.53-33.42.25-50.14.24Z"/>
  <path class="cls-1" d="m254.33,64.92V23.08c13.68,13.86,27.72,28.06,41.32,41.84h-41.32Z"/>
</svg>