<?xml version="1.0" encoding="UTF-8"?>
<svg id="Layer_1" data-name="Layer 1" xmlns="http://www.w3.org/2000/svg" viewBox="0 0 1190.55 841.89">
  <defs>
    <style>
      .cls-1 {
        fill: #FFFCF2;
      }
    </style>
  </defs>
  <path class="cls-1" d="m470.26,314.97c7.65,0,15.31.27,22.93-.11,4.34-.22,5.1,1.33,5.09,5.32-.15,38.06-.1,76.13-.1,114.19,0,1.78,0,3.57,0,5.89,10.85-4.82,20.72-10.25,30.72-15.44,15.64-8.11,31.36-16.08,47.05-24.1.58-.3,1.18-.53,1.78-.8q6.27-2.83,6.27,3.95c0,11.94,0,23.88,0,36.67,28.81-14.54,56.73-29.37,85.69-43.18v43.42c28.62-14.57,56.79-28.91,86.05-43.81,0,4.87,0,8.29,0,11.72,0,57.18-.05,114.36.11,171.53.01,4.34-.98,5.5-5.43,5.49-104.05-.14-208.1-.15-312.15,0-4.78,0-5.62-1.46-5.61-5.83.12-84.27.08-168.54.07-252.81q0-12.13,12.3-12.13c5.32,0,10.64-.01,15.95-.02,3.09.66,6.18.64,9.27.04Zm242.63,157.12c-3.31,0-6.62.09-9.93-.03-2.18-.08-3.35.35-3.3,2.93.14,6.95.13,13.9,0,20.85-.04,2.37.74,3.15,3.11,3.11,6.78-.13,13.57-.11,20.35,0,2.31.04,3.28-.64,3.23-3.08-.14-6.78-.16-13.57-.11-20.35.02-2.49-.8-3.61-3.44-3.47-3.3.18-6.62.04-9.93.04Zm-170.8,0c-4.1,0-7.42.13-10.73-.04-2.53-.13-3.56.67-3.5,3.34.14,6.8.17,13.61-.01,20.4-.08,2.89,1.29,3.19,3.62,3.15,6.3-.11,12.62-.25,18.91.05,3.51.16,4.22-1.25,4.01-4.31-.21-3.14-.03-6.3-.08-9.45-.06-4.14,1.37-9.53-.69-12.08-2.43-3.01-8.09-.5-11.53-1.06Zm71.69,12.77c0,.92,0,1.09,0,1.25.26,4.1-1.77,9.4.79,11.97,2.57,2.58,7.88.77,11.97.75,4.42-.02,10.23,2,12.89-.9,2.6-2.83.74-8.56.76-13.01.06-12.84,0-12.87-12.83-12.81-4.29.02-9.89-1.42-12.51.72-3.1,2.54-.53,8.39-1.06,12.02Z"/>
  <path class="cls-1" d="m470.26,314.97c-3.09.59-6.19.62-9.27-.04,0-10.62,0-21.25,0-32.13-5.02,1.21-9.58,3.64-14.83,3.64-6.71,0-12.64-2.21-18.02-5.84-5.36-3.61-10.06-8-14.22-13.03-1.75-2.12-1.43-2.96.8-3.8,10.82-4.08,22-4.84,33.04-1.85,8.09,2.19,13.27,8.47,17.14,16.48,2.33-6.36,3.42-12.58,6.27-18.24,8.05-15.97,21.28-25.01,38.34-28.51,12.13-2.48,24.46-3.4,36.86-1.19,2.58.46,3.12.9,2.04,3.3-7.45,16.61-16.92,31.65-32.76,41.56-6.54,4.09-13.71,8.17-21.44,7.82-7.91-.35-16.51,2.58-23.95-4.26v36.09Z"/>
</svg>