<svg width="44" height="25" viewBox="0 0 44 25" fill="none" xmlns="http://www.w3.org/2000/svg">
<path fill-rule="evenodd" clip-rule="evenodd" d="M0.684099 0.6841C0.246048 1.1227 0 1.71723 0 2.33712C0 2.957 0.246048 3.55153 0.684099 3.99013L20.1772 23.4832C20.6158 23.9213 21.2103 24.1673 21.8302 24.1673C22.4501 24.1673 23.0446 23.9213 23.4832 23.4832L42.9764 3.99013C43.3896 3.5467 43.6145 2.96021 43.6038 2.3542C43.5931 1.74819 43.3476 1.17 42.919 0.74142C42.4905 0.312843 41.9123 0.0673459 41.3063 0.0566536C40.7003 0.0459614 40.1138 0.270908 39.6703 0.6841L21.8302 18.5242L3.99013 0.6841C3.55154 0.246049 2.957 0 2.33712 0C1.71723 0 1.12269 0.246049 0.684099 0.6841Z" fill="#4A7C59"/>
</svg>