<svg width="67" height="67" viewBox="0 0 67 67" fill="none" xmlns="http://www.w3.org/2000/svg">
<rect width="67" height="67" rx="20" fill="#C8D5B9"/>
<path fill-rule="evenodd" clip-rule="evenodd" d="M54.92 42.4833C55.3581 42.0447 55.6041 41.4501 55.6041 40.8302C55.6041 40.2104 55.3581 39.6158 54.92 39.1772L35.4269 19.6841C34.9883 19.2461 34.3938 19 33.7739 19C33.154 19 32.5595 19.2461 32.1209 19.6841L12.6278 39.1772C12.2146 39.6207 11.9896 40.2072 12.0003 40.8132C12.011 41.4192 12.2565 41.9974 12.6851 42.4259C13.1137 42.8545 13.6919 43.1 14.2979 43.1107C14.9039 43.1214 15.4904 42.8965 15.9338 42.4833L33.7739 24.6432L51.614 42.4833C52.0526 42.9213 52.6471 43.1674 53.267 43.1674C53.8869 43.1674 54.4814 42.9213 54.92 42.4833Z" fill="#FFFCF2"/>
</svg>